<?xml version="1.0" encoding="UTF-8"?><svg id="Layer_1" xmlns="http://www.w3.org/2000/svg" xmlns:xlink="http://www.w3.org/1999/xlink" viewBox="0 0 1855 1527"><defs><style>.cls-1{fill:url(#linear-gradient-2);}.cls-2{fill:url(#linear-gradient-5);}.cls-3{fill:url(#linear-gradient-3);}.cls-4{fill:url(#linear-gradient);}.cls-5{fill:url(#linear-gradient-4);}</style><linearGradient id="linear-gradient" x1="178.94" y1="763.04" x2="1620" y2="763.04" gradientTransform="matrix(1, 0, 0, 1, 0, 0)" gradientUnits="userSpaceOnUse"><stop offset="0" stop-color="#c51317"/><stop offset="1" stop-color="#ff2943"/></linearGradient><linearGradient id="linear-gradient-2" x1="385.02" y1="704.35" x2="1539.28" y2="704.35" gradientTransform="matrix(1, 0, 0, 1, 0, 0)" gradientUnits="userSpaceOnUse"><stop offset="0" stop-color="#ff1f47"/><stop offset=".52" stop-color="#ff8dc9"/><stop offset="1" stop-color="#ff2943"/></linearGradient><linearGradient id="linear-gradient-3" y1="154.56" x2="385.02" y2="154.56" xlink:href="#linear-gradient"/><linearGradient id="linear-gradient-4" x1="1539.28" y1="149.42" y2="149.42" xlink:href="#linear-gradient"/><linearGradient id="linear-gradient-5" x1="1514.67" y1="1317.98" y2="1317.98" xlink:href="#linear-gradient"/></defs><polygon class="cls-4" points="178.94 113.09 1620 1412.99 1620 113.09 178.94 113.09"/><polygon class="cls-1" points="385.02 185.74 1539.28 1222.96 1539.28 185.74 385.02 185.74"/><polygon class="cls-3" points="385.02 185.74 270.87 196.02 178.94 113.09 311.17 113.09 385.02 185.74"/><polygon class="cls-5" points="1539.28 185.74 1620 185.74 1620 113.09 1551.82 113.09 1539.28 185.74"/><polygon class="cls-2" points="1620 1412.99 1620 1268.47 1539.28 1222.96 1514.67 1317.98 1620 1412.99"/></svg>