<?xml version="1.0" encoding="UTF-8"?><svg id="Layer_1" xmlns="http://www.w3.org/2000/svg" xmlns:xlink="http://www.w3.org/1999/xlink" viewBox="0 0 1855 1527"><defs><style>.cls-1{fill:url(#linear-gradient-2);}.cls-2{fill:url(#linear-gradient-5);}.cls-3{fill:url(#linear-gradient-3);}.cls-4{fill:url(#linear-gradient);}.cls-5{fill:url(#linear-gradient-4);}</style><linearGradient id="linear-gradient" x1="184.3" y1="762.64" x2="1628" y2="762.64" gradientTransform="matrix(1, 0, 0, 1, 0, 0)" gradientUnits="userSpaceOnUse"><stop offset="0" stop-color="#05c600"/><stop offset="1" stop-color="#52d100"/></linearGradient><linearGradient id="linear-gradient-2" x1="390.76" y1="703.84" x2="1547.13" y2="703.84" gradientTransform="matrix(1, 0, 0, 1, 0, 0)" gradientUnits="userSpaceOnUse"><stop offset="0" stop-color="#61d13f"/><stop offset=".53" stop-color="#b2ff97"/><stop offset="1" stop-color="#48ca20"/></linearGradient><linearGradient id="linear-gradient-3" x1="184.3" y1="153.04" x2="390.76" y2="153.04" gradientTransform="matrix(1, 0, 0, 1, 0, 0)" gradientUnits="userSpaceOnUse"><stop offset="0" stop-color="#12c460"/><stop offset="1" stop-color="#009035"/></linearGradient><linearGradient id="linear-gradient-4" x1="1547.13" y1="147.89" x2="1628" y2="147.89" xlink:href="#linear-gradient-3"/><linearGradient id="linear-gradient-5" x1="1522.47" y1="1318.59" x2="1628" y2="1318.59" xlink:href="#linear-gradient-3"/></defs><polygon class="cls-4" points="184.3 111.5 1628 1413.78 1628 111.5 184.3 111.5"/><polygon class="cls-1" points="390.76 184.28 1547.13 1223.4 1547.13 184.28 390.76 184.28"/><polygon class="cls-3" points="390.76 184.28 276.4 194.58 184.3 111.5 316.77 111.5 390.76 184.28"/><polygon class="cls-5" points="1547.13 184.28 1628 184.28 1628 111.5 1559.69 111.5 1547.13 184.28"/><polygon class="cls-2" points="1628 1413.78 1628 1268.99 1547.13 1223.4 1522.47 1318.59 1628 1413.78"/></svg>