<?xml version="1.0" encoding="UTF-8"?><svg id="Layer_1" xmlns="http://www.w3.org/2000/svg" xmlns:xlink="http://www.w3.org/1999/xlink" viewBox="0 0 1855 1527"><defs><style>.cls-1{fill:url(#linear-gradient-2);}.cls-2{fill:url(#linear-gradient-5);}.cls-3{fill:url(#linear-gradient-3);}.cls-4{fill:url(#linear-gradient);}.cls-5{fill:url(#linear-gradient-4);}</style><linearGradient id="linear-gradient" x1="167.9" y1="763.45" x2="1616.95" y2="763.45" gradientTransform="matrix(1, 0, 0, 1, 0, 0)" gradientUnits="userSpaceOnUse"><stop offset="0" stop-color="#ff8611"/><stop offset="1" stop-color="#ffa209"/></linearGradient><linearGradient id="linear-gradient-2" x1="375.12" y1="704.43" x2="1535.79" y2="704.43" gradientTransform="matrix(1, 0, 0, 1, 0, 0)" gradientUnits="userSpaceOnUse"><stop offset=".36" stop-color="#ffc815"/><stop offset=".61" stop-color="#ffff4b"/><stop offset="1" stop-color="#ffc815"/></linearGradient><linearGradient id="linear-gradient-3" x1="167.9" y1="151.59" x2="375.12" y2="151.59" gradientTransform="matrix(1, 0, 0, 1, 0, 0)" gradientUnits="userSpaceOnUse"><stop offset="0" stop-color="#ff8611"/><stop offset="1" stop-color="#ff6a09"/></linearGradient><linearGradient id="linear-gradient-4" x1="1535.79" y1="146.42" x2="1616.95" y2="146.42" xlink:href="#linear-gradient-3"/><linearGradient id="linear-gradient-5" x1="1511.04" y1="1321.46" x2="1616.95" y2="1321.46" xlink:href="#linear-gradient-3"/></defs><polygon class="cls-4" points="167.9 109.89 1616.95 1417 1616.95 109.89 167.9 109.89"/><polygon class="cls-1" points="375.12 182.94 1535.79 1225.92 1535.79 182.94 375.12 182.94"/><polygon class="cls-3" points="375.12 182.94 260.34 193.28 167.9 109.89 300.87 109.89 375.12 182.94"/><polygon class="cls-5" points="1535.79 182.94 1616.95 182.94 1616.95 109.89 1548.39 109.89 1535.79 182.94"/><polygon class="cls-2" points="1616.95 1417 1616.95 1271.68 1535.79 1225.92 1511.04 1321.46 1616.95 1417"/></svg>