<svg width="70" height="70" viewBox="0 0 70 70" fill="none" xmlns="http://www.w3.org/2000/svg">
<g id="vscode-icons:file-type-excel">
<path id="Vector" d="M42.8345 33.5781L18.6211 29.3125V60.8322C18.6214 61.1746 18.6891 61.5136 18.8204 61.8299C18.9517 62.1461 19.144 62.4334 19.3864 62.6753C19.6287 62.9173 19.9163 63.1091 20.2328 63.2399C20.5492 63.3706 20.8884 63.4378 21.2308 63.4375H63.012C63.3548 63.4384 63.6944 63.3716 64.0114 63.2411C64.3284 63.1106 64.6165 62.9189 64.8593 62.6769C65.1021 62.4349 65.2948 62.1474 65.4264 61.8309C65.5579 61.5143 65.6258 61.175 65.6261 60.8322V49.2188L42.8345 33.5781Z" fill="#185C37"/>
<path id="Vector_2" d="M42.8345 6.5625H21.2308C20.8884 6.56221 20.5492 6.62937 20.2328 6.76015C19.9163 6.89092 19.6287 7.08275 19.3864 7.32467C19.144 7.5666 18.9517 7.85389 18.8204 8.17013C18.6891 8.48638 18.6214 8.82539 18.6211 9.16781V20.7813L42.8345 35L55.6555 39.2656L65.6261 35V20.7813L42.8345 6.5625Z" fill="#21A366"/>
<path id="Vector_3" d="M18.6211 20.7812H42.8345V35H18.6211V20.7812Z" fill="#107C41"/>
<path id="Vector_4" opacity="0.1" d="M35.9505 17.9375H18.6211V53.4844H35.9505C36.641 53.4809 37.3023 53.2056 37.7912 52.7179C38.2801 52.2302 38.5572 51.5696 38.5623 50.8791V20.5428C38.5572 19.8523 38.2801 19.1916 37.7912 18.704C37.3023 18.2163 36.641 17.9409 35.9505 17.9375Z" fill="black"/>
<path id="Vector_5" opacity="0.2" d="M34.5264 19.3594H18.6211V54.9062H34.5264C35.2169 54.9028 35.8783 54.6274 36.3672 54.1398C36.8561 53.6521 37.1331 52.9914 37.1383 52.3009V21.9647C37.1331 21.2742 36.8561 20.6135 36.3672 20.1259C35.8783 19.6382 35.2169 19.3628 34.5264 19.3594Z" fill="black"/>
<path id="Vector_6" opacity="0.2" d="M34.5264 19.3594H18.6211V52.0625H34.5264C35.2169 52.0591 35.8783 51.7837 36.3672 51.296C36.8561 50.8084 37.1331 50.1477 37.1383 49.4572V21.9647C37.1331 21.2742 36.8561 20.6135 36.3672 20.1259C35.8783 19.6382 35.2169 19.3628 34.5264 19.3594Z" fill="black"/>
<path id="Vector_7" opacity="0.2" d="M33.1023 19.3594H18.6211V52.0625H33.1023C33.7929 52.0591 34.4542 51.7837 34.9431 51.296C35.432 50.8084 35.709 50.1477 35.7142 49.4572V21.9647C35.709 21.2742 35.432 20.6135 34.9431 20.1259C34.4542 19.6382 33.7929 19.3628 33.1023 19.3594Z" fill="black"/>
<path id="Vector_8" d="M6.98688 19.3594H33.1012C33.793 19.3588 34.4567 19.6329 34.9464 20.1214C35.4362 20.6099 35.712 21.2729 35.7131 21.9647V48.0353C35.712 48.7271 35.4362 49.3901 34.9464 49.8786C34.4567 50.3671 33.793 50.6412 33.1012 50.6406H6.98688C6.64427 50.6412 6.30491 50.5743 5.98819 50.4436C5.67147 50.313 5.3836 50.1212 5.14104 49.8792C4.89848 49.6373 4.70597 49.3499 4.57453 49.0335C4.44309 48.7171 4.37529 48.3779 4.375 48.0353V21.9647C4.37529 21.6221 4.44309 21.2829 4.57453 20.9665C4.70597 20.6501 4.89848 20.3627 5.14104 20.1208C5.3836 19.8788 5.67147 19.687 5.98819 19.5564C6.30491 19.4258 6.64427 19.3588 6.98688 19.3594Z" fill="url(#paint0_linear_2045_129)"/>
<path id="Vector_9" d="M12.4688 43.4722L17.9616 34.976L12.9303 26.5278H16.9706L19.7159 31.9375C19.9697 32.4494 20.1534 32.83 20.2366 33.0838H20.2737C20.4531 32.6725 20.6434 32.2766 20.8425 31.8894L23.7781 26.5366H27.4969L22.3366 34.9366L27.6281 43.4788H23.6709L20.4991 37.5485C20.3518 37.2935 20.2266 37.0264 20.125 36.75H20.0725C19.98 37.0193 19.8567 37.2769 19.705 37.5178L16.4391 43.4722H12.4688Z" fill="white"/>
<path id="Vector_10" d="M63.0117 6.5625H42.832V20.7813H65.6236V9.16782C65.6233 8.82521 65.5555 8.48602 65.4241 8.16963C65.2926 7.85324 65.1001 7.56586 64.8576 7.3239C64.615 7.08195 64.3271 6.89017 64.0104 6.75952C63.6937 6.62888 63.3543 6.56193 63.0117 6.5625Z" fill="#33C481"/>
<path id="Vector_11" d="M42.832 35H65.6236V49.2188H42.832V35Z" fill="#107C41"/>
</g>
<defs>
<linearGradient id="paint0_linear_2045_129" x1="9.83062" y1="17.3119" x2="30.2575" y2="52.6881" gradientUnits="userSpaceOnUse">
<stop stop-color="#18884F"/>
<stop offset="0.5" stop-color="#117E43"/>
<stop offset="1" stop-color="#0B6631"/>
</linearGradient>
</defs>
</svg>
