<svg width="18" height="18" viewBox="0 0 18 18" fill="none" xmlns="http://www.w3.org/2000/svg">
<g id="vscode-icons:file-type-excel">
<path id="Vector" d="M11.0144 8.63398L4.78809 7.53711V15.6422C4.78816 15.7302 4.80558 15.8174 4.83934 15.8987C4.8731 15.98 4.92255 16.0539 4.98487 16.1161C5.04718 16.1783 5.12114 16.2277 5.20252 16.2613C5.28389 16.2949 5.3711 16.3122 5.45915 16.3121H16.2029C16.291 16.3123 16.3784 16.2952 16.4599 16.2616C16.5414 16.228 16.6155 16.1787 16.6779 16.1165C16.7403 16.0543 16.7899 15.9804 16.8237 15.899C16.8576 15.8176 16.875 15.7303 16.8751 15.6422V12.6559L11.0144 8.63398Z" fill="#185C37"/>
<path id="Vector_2" d="M11.0144 1.6875H5.45915C5.3711 1.68743 5.28389 1.7047 5.20252 1.73832C5.12114 1.77195 5.04718 1.82128 4.98487 1.88349C4.92255 1.9457 4.8731 2.01957 4.83934 2.10089C4.80558 2.18221 4.78816 2.26939 4.78809 2.35744V5.34375L11.0144 9L14.3112 10.0969L16.8751 9V5.34375L11.0144 1.6875Z" fill="#21A366"/>
<path id="Vector_3" d="M4.78809 5.34375H11.0144V9H4.78809V5.34375Z" fill="#107C41"/>
<path id="Vector_4" opacity="0.1" d="M9.24421 4.6123H4.78809V13.7529H9.24421C9.42177 13.752 9.59184 13.6812 9.71755 13.5558C9.84327 13.4304 9.91451 13.2606 9.91584 13.083V5.28224C9.91451 5.10468 9.84327 4.9348 9.71755 4.8094C9.59184 4.684 9.42177 4.61319 9.24421 4.6123Z" fill="black"/>
<path id="Vector_5" opacity="0.2" d="M8.87802 4.97852H4.78809V14.1191H8.87802C9.05559 14.1183 9.22565 14.0474 9.35136 13.922C9.47708 13.7966 9.54832 13.6268 9.54965 13.4492V5.64845C9.54832 5.47089 9.47708 5.30101 9.35136 5.17561C9.22565 5.05021 9.05559 4.9794 8.87802 4.97852Z" fill="black"/>
<path id="Vector_6" opacity="0.2" d="M8.87802 4.97852H4.78809V13.3879H8.87802C9.05559 13.387 9.22565 13.3162 9.35136 13.1908C9.47708 13.0654 9.54832 12.8955 9.54965 12.718V5.64845C9.54832 5.47089 9.47708 5.30101 9.35136 5.17561C9.22565 5.05021 9.05559 4.9794 8.87802 4.97852Z" fill="black"/>
<path id="Vector_7" opacity="0.2" d="M8.51184 4.97852H4.78809V13.3879H8.51184C8.6894 13.387 8.85946 13.3162 8.98518 13.1908C9.11089 13.0654 9.18213 12.8955 9.18346 12.718V5.64845C9.18213 5.47089 9.11089 5.30101 8.98518 5.17561C8.85946 5.05021 8.6894 4.9794 8.51184 4.97852Z" fill="black"/>
<path id="Vector_8" d="M1.79663 4.97852H8.51175C8.68963 4.97837 8.86029 5.04885 8.98623 5.17447C9.11217 5.30009 9.18308 5.47057 9.18338 5.64845V12.3523C9.18308 12.5302 9.11217 12.7007 8.98623 12.8263C8.86029 12.9519 8.68963 13.0224 8.51175 13.0223H1.79663C1.70853 13.0224 1.62126 13.0052 1.53982 12.9716C1.45838 12.938 1.38435 12.8887 1.32198 12.8265C1.25961 12.7643 1.21011 12.6904 1.17631 12.609C1.14251 12.5276 1.12507 12.4404 1.125 12.3523V5.64845C1.12507 5.56036 1.14251 5.47313 1.17631 5.39178C1.21011 5.31042 1.25961 5.23652 1.32198 5.1743C1.38435 5.11209 1.45838 5.06277 1.53982 5.02918C1.62126 4.99558 1.70853 4.97837 1.79663 4.97852Z" fill="url(#paint0_linear_670_179)"/>
<path id="Vector_9" d="M3.20605 11.1784L4.61849 8.99366L3.32474 6.82129H4.36368L5.06962 8.21235C5.13487 8.34398 5.18212 8.44185 5.20349 8.5071H5.21305C5.25918 8.40135 5.30812 8.29954 5.3593 8.19998L6.11418 6.82354H7.07043L5.74349 8.98354L7.10418 11.1801H6.08662L5.27099 9.65516C5.23312 9.5896 5.20094 9.52091 5.1748 9.44985H5.1613C5.13752 9.51909 5.10581 9.58534 5.06681 9.64729L4.22699 11.1784H3.20605Z" fill="white"/>
<path id="Vector_10" d="M16.2037 1.6875H11.0146V5.34375H16.8753V2.35744C16.8753 2.26934 16.8578 2.18212 16.824 2.10076C16.7902 2.0194 16.7407 1.94551 16.6784 1.88329C16.616 1.82107 16.542 1.77176 16.4605 1.73816C16.3791 1.70457 16.2918 1.68735 16.2037 1.6875Z" fill="#33C481"/>
<path id="Vector_11" d="M11.0146 9H16.8753V12.6562H11.0146V9Z" fill="#107C41"/>
</g>
<defs>
<linearGradient id="paint0_linear_670_179" x1="2.52788" y1="4.45202" x2="7.7805" y2="13.5488" gradientUnits="userSpaceOnUse">
<stop stop-color="#18884F"/>
<stop offset="0.5" stop-color="#117E43"/>
<stop offset="1" stop-color="#0B6631"/>
</linearGradient>
</defs>
</svg>
