<svg width="237" height="176" viewBox="0 0 237 176" fill="none" xmlns="http://www.w3.org/2000/svg">
<path fill-rule="evenodd" clip-rule="evenodd" d="M118.334 173.767C183.689 173.767 236.669 134.868 236.669 86.8834C236.669 38.899 183.689 0 118.334 0C52.9801 0 0 38.899 0 86.8834C0 107.371 9.65866 126.203 25.8152 141.058L17.0914 173.433C16.6918 174.915 18.0564 176.272 19.5478 175.875L63.9139 164.054C80.206 170.26 98.7125 173.767 118.334 173.767Z" fill="#FFC815"/>
<path d="M98.4937 68.563V71.1997H89.1431V68.563H98.4937ZM90.0586 61.2266V79H86.7017V61.2266H90.0586ZM100.984 61.2266V79H97.627V61.2266H100.984ZM110.09 79.2441C109.089 79.2441 108.19 79.0814 107.393 78.7559C106.595 78.4303 105.916 77.9787 105.354 77.4009C104.801 76.8149 104.373 76.1354 104.072 75.3623C103.779 74.5811 103.633 73.7428 103.633 72.8477V72.3594C103.633 71.3421 103.779 70.4185 104.072 69.5884C104.365 68.7502 104.78 68.0299 105.317 67.4277C105.854 66.8255 106.497 66.3617 107.246 66.0361C107.995 65.7106 108.821 65.5479 109.724 65.5479C110.66 65.5479 111.486 65.7065 112.202 66.0239C112.918 66.3332 113.516 66.7726 113.997 67.3423C114.477 67.9119 114.839 68.5955 115.083 69.3931C115.327 70.1825 115.449 71.0573 115.449 72.0176V73.3726H105.098V71.1509H112.275V70.9067C112.259 70.394 112.161 69.9261 111.982 69.5029C111.803 69.0716 111.527 68.7298 111.152 68.4775C110.778 68.2171 110.294 68.0869 109.7 68.0869C109.22 68.0869 108.8 68.1927 108.442 68.4043C108.092 68.6077 107.799 68.9007 107.563 69.2832C107.336 69.6576 107.165 70.1051 107.051 70.626C106.937 71.1468 106.88 71.7246 106.88 72.3594V72.8477C106.88 73.401 106.953 73.9137 107.1 74.3857C107.254 74.8577 107.478 75.2687 107.771 75.6187C108.072 75.9604 108.43 76.229 108.845 76.4243C109.268 76.6115 109.749 76.7051 110.286 76.7051C110.961 76.7051 111.571 76.5749 112.117 76.3145C112.67 76.0459 113.15 75.6512 113.557 75.1304L115.181 76.8149C114.904 77.2218 114.53 77.6125 114.058 77.9868C113.594 78.3612 113.032 78.6663 112.373 78.9023C111.714 79.1302 110.953 79.2441 110.09 79.2441ZM121.028 60.25V79H117.793V60.25H121.028ZM127.522 60.25V79H124.287V60.25H127.522ZM130.024 72.5303V72.2739C130.024 71.3055 130.163 70.4144 130.439 69.6006C130.716 68.7786 131.119 68.0666 131.648 67.4644C132.177 66.8621 132.824 66.3942 133.589 66.0605C134.354 65.7188 135.225 65.5479 136.201 65.5479C137.194 65.5479 138.073 65.7188 138.838 66.0605C139.611 66.3942 140.262 66.8621 140.791 67.4644C141.32 68.0666 141.723 68.7786 142 69.6006C142.276 70.4144 142.415 71.3055 142.415 72.2739V72.5303C142.415 73.4906 142.276 74.3817 142 75.2036C141.723 76.0174 141.32 76.7295 140.791 77.3398C140.262 77.9421 139.615 78.41 138.85 78.7437C138.085 79.0773 137.21 79.2441 136.226 79.2441C135.249 79.2441 134.374 79.0773 133.601 78.7437C132.828 78.41 132.177 77.9421 131.648 77.3398C131.119 76.7295 130.716 76.0174 130.439 75.2036C130.163 74.3817 130.024 73.4906 130.024 72.5303ZM133.247 72.2739V72.5303C133.247 73.1081 133.304 73.6493 133.418 74.1538C133.532 74.6584 133.707 75.1019 133.943 75.4844C134.179 75.8669 134.484 76.168 134.858 76.3877C135.241 76.5993 135.697 76.7051 136.226 76.7051C136.746 76.7051 137.194 76.5993 137.568 76.3877C137.943 76.168 138.248 75.8669 138.484 75.4844C138.728 75.1019 138.907 74.6584 139.021 74.1538C139.135 73.6493 139.192 73.1081 139.192 72.5303V72.2739C139.192 71.7043 139.135 71.1712 139.021 70.6748C138.907 70.1702 138.728 69.7267 138.484 69.3442C138.248 68.9536 137.939 68.6484 137.556 68.4287C137.182 68.2008 136.73 68.0869 136.201 68.0869C135.68 68.0869 135.233 68.2008 134.858 68.4287C134.484 68.6484 134.179 68.9536 133.943 69.3442C133.707 69.7267 133.532 70.1702 133.418 70.6748C133.304 71.1712 133.247 71.7043 133.247 72.2739ZM148.433 61.2266L148.079 73.6655H145.356L145.002 61.2266H148.433ZM144.905 77.4985C144.905 77.0184 145.068 76.6156 145.393 76.29C145.727 75.9564 146.174 75.7896 146.736 75.7896C147.297 75.7896 147.741 75.9564 148.066 76.29C148.4 76.6156 148.567 77.0184 148.567 77.4985C148.567 77.9705 148.4 78.3693 148.066 78.6948C147.741 79.0203 147.297 79.1831 146.736 79.1831C146.174 79.1831 145.727 79.0203 145.393 78.6948C145.068 78.3693 144.905 77.9705 144.905 77.4985ZM29.9609 97.7031L32.7832 87.7812H34.1504L33.3594 91.6387L30.3223 102H28.9648L29.9609 97.7031ZM27.041 87.7812L29.2871 97.5078L29.9609 102H28.6133L25.166 87.7812H27.041ZM37.8027 97.498L40 87.7812H41.8848L38.4473 102H37.0996L37.8027 97.498ZM34.3555 87.7812L37.0996 97.7031L38.0957 102H36.7383L33.8086 91.6387L33.0078 87.7812H34.3555ZM45.5078 87V102H43.7012V87H45.5078ZM45.0781 96.3164L44.3262 96.2871C44.3327 95.5645 44.4401 94.8971 44.6484 94.2852C44.8568 93.6667 45.1497 93.1296 45.5273 92.6738C45.9049 92.2181 46.3542 91.8665 46.875 91.6191C47.4023 91.3652 47.985 91.2383 48.623 91.2383C49.1439 91.2383 49.6126 91.3099 50.0293 91.4531C50.446 91.5898 50.8008 91.8112 51.0938 92.1172C51.3932 92.4232 51.6211 92.8203 51.7773 93.3086C51.9336 93.7904 52.0117 94.3796 52.0117 95.0762V102H50.1953V95.0566C50.1953 94.5033 50.1139 94.0605 49.9512 93.7285C49.7884 93.39 49.5508 93.1458 49.2383 92.9961C48.9258 92.8398 48.5417 92.7617 48.0859 92.7617C47.6367 92.7617 47.2266 92.8561 46.8555 93.0449C46.4909 93.2337 46.1751 93.4941 45.9082 93.8262C45.6478 94.1582 45.4427 94.5391 45.293 94.9688C45.1497 95.3919 45.0781 95.8411 45.0781 96.3164ZM60.9473 100.193V94.7539C60.9473 94.3372 60.8626 93.9759 60.6934 93.6699C60.5306 93.3574 60.2832 93.1165 59.9512 92.9473C59.6191 92.778 59.209 92.6934 58.7207 92.6934C58.265 92.6934 57.8646 92.7715 57.5195 92.9277C57.181 93.084 56.9141 93.2891 56.7188 93.543C56.5299 93.7969 56.4355 94.0703 56.4355 94.3633H54.6289C54.6289 93.9857 54.7266 93.6113 54.9219 93.2402C55.1172 92.8691 55.3971 92.5339 55.7617 92.2344C56.1328 91.9284 56.5755 91.6875 57.0898 91.5117C57.6107 91.3294 58.1901 91.2383 58.8281 91.2383C59.5964 91.2383 60.2734 91.3685 60.8594 91.6289C61.4518 91.8893 61.9141 92.2832 62.2461 92.8105C62.5846 93.3314 62.7539 93.9857 62.7539 94.7734V99.6953C62.7539 100.047 62.7832 100.421 62.8418 100.818C62.9069 101.215 63.0013 101.557 63.125 101.844V102H61.2402C61.1491 101.792 61.0775 101.515 61.0254 101.17C60.9733 100.818 60.9473 100.493 60.9473 100.193ZM61.2598 95.5938L61.2793 96.8633H59.4531C58.9388 96.8633 58.4798 96.9056 58.0762 96.9902C57.6725 97.0684 57.334 97.1888 57.0605 97.3516C56.7871 97.5143 56.5788 97.7194 56.4355 97.9668C56.2923 98.2077 56.2207 98.4909 56.2207 98.8164C56.2207 99.1484 56.2956 99.4512 56.4453 99.7246C56.5951 99.998 56.8197 100.216 57.1191 100.379C57.4251 100.535 57.7995 100.613 58.2422 100.613C58.7956 100.613 59.2839 100.496 59.707 100.262C60.1302 100.027 60.4655 99.7409 60.7129 99.4023C60.9668 99.0638 61.1035 98.735 61.123 98.416L61.8945 99.2852C61.849 99.5586 61.7253 99.8613 61.5234 100.193C61.3216 100.525 61.0514 100.844 60.7129 101.15C60.3809 101.45 59.9837 101.701 59.5215 101.902C59.0658 102.098 58.5514 102.195 57.9785 102.195C57.2624 102.195 56.6341 102.055 56.0938 101.775C55.5599 101.495 55.1432 101.121 54.8438 100.652C54.5508 100.177 54.4043 99.6465 54.4043 99.0605C54.4043 98.4941 54.515 97.9961 54.7363 97.5664C54.9577 97.1302 55.2767 96.7689 55.6934 96.4824C56.11 96.1895 56.6113 95.9681 57.1973 95.8184C57.7832 95.6686 58.4375 95.5938 59.1602 95.5938H61.2598ZM70.0195 91.4336V92.8203H64.3066V91.4336H70.0195ZM66.2402 88.8652H68.0469V99.3828C68.0469 99.7409 68.1022 100.011 68.2129 100.193C68.3236 100.376 68.4668 100.496 68.6426 100.555C68.8184 100.613 69.0072 100.643 69.209 100.643C69.3587 100.643 69.515 100.63 69.6777 100.604C69.847 100.571 69.974 100.545 70.0586 100.525L70.0684 102C69.9251 102.046 69.7363 102.088 69.502 102.127C69.2741 102.173 68.9974 102.195 68.6719 102.195C68.2292 102.195 67.8223 102.107 67.4512 101.932C67.0801 101.756 66.7839 101.463 66.5625 101.053C66.3477 100.636 66.2402 100.076 66.2402 99.373V88.8652ZM83.3301 100.193V94.7539C83.3301 94.3372 83.2454 93.9759 83.0762 93.6699C82.9134 93.3574 82.666 93.1165 82.334 92.9473C82.002 92.778 81.5918 92.6934 81.1035 92.6934C80.6478 92.6934 80.2474 92.7715 79.9023 92.9277C79.5638 93.084 79.2969 93.2891 79.1016 93.543C78.9128 93.7969 78.8184 94.0703 78.8184 94.3633H77.0117C77.0117 93.9857 77.1094 93.6113 77.3047 93.2402C77.5 92.8691 77.7799 92.5339 78.1445 92.2344C78.5156 91.9284 78.9583 91.6875 79.4727 91.5117C79.9935 91.3294 80.5729 91.2383 81.2109 91.2383C81.9792 91.2383 82.6562 91.3685 83.2422 91.6289C83.8346 91.8893 84.2969 92.2832 84.6289 92.8105C84.9674 93.3314 85.1367 93.9857 85.1367 94.7734V99.6953C85.1367 100.047 85.166 100.421 85.2246 100.818C85.2897 101.215 85.3841 101.557 85.5078 101.844V102H83.623C83.5319 101.792 83.4603 101.515 83.4082 101.17C83.3561 100.818 83.3301 100.493 83.3301 100.193ZM83.6426 95.5938L83.6621 96.8633H81.8359C81.3216 96.8633 80.8626 96.9056 80.459 96.9902C80.0553 97.0684 79.7168 97.1888 79.4434 97.3516C79.1699 97.5143 78.9616 97.7194 78.8184 97.9668C78.6751 98.2077 78.6035 98.4909 78.6035 98.8164C78.6035 99.1484 78.6784 99.4512 78.8281 99.7246C78.9779 99.998 79.2025 100.216 79.502 100.379C79.8079 100.535 80.1823 100.613 80.625 100.613C81.1784 100.613 81.6667 100.496 82.0898 100.262C82.513 100.027 82.8483 99.7409 83.0957 99.4023C83.3496 99.0638 83.4863 98.735 83.5059 98.416L84.2773 99.2852C84.2318 99.5586 84.1081 99.8613 83.9062 100.193C83.7044 100.525 83.4342 100.844 83.0957 101.15C82.7637 101.45 82.3665 101.701 81.9043 101.902C81.4486 102.098 80.9342 102.195 80.3613 102.195C79.6452 102.195 79.0169 102.055 78.4766 101.775C77.9427 101.495 77.526 101.121 77.2266 100.652C76.9336 100.177 76.7871 99.6465 76.7871 99.0605C76.7871 98.4941 76.8978 97.9961 77.1191 97.5664C77.3405 97.1302 77.6595 96.7689 78.0762 96.4824C78.4928 96.1895 78.9941 95.9681 79.5801 95.8184C80.166 95.6686 80.8203 95.5938 81.543 95.5938H83.6426ZM89.7852 93.0938V102H87.9785V91.4336H89.7363L89.7852 93.0938ZM93.0859 91.375L93.0762 93.0547C92.9264 93.0221 92.7832 93.0026 92.6465 92.9961C92.5163 92.9831 92.3665 92.9766 92.1973 92.9766C91.7806 92.9766 91.4128 93.0417 91.0938 93.1719C90.7747 93.3021 90.5046 93.4844 90.2832 93.7188C90.0618 93.9531 89.8861 94.2331 89.7559 94.5586C89.6322 94.8776 89.5508 95.2292 89.5117 95.6133L89.0039 95.9062C89.0039 95.2682 89.0658 94.6693 89.1895 94.1094C89.3197 93.5495 89.5182 93.0547 89.7852 92.625C90.0521 92.1888 90.3906 91.8503 90.8008 91.6094C91.2174 91.362 91.7122 91.2383 92.2852 91.2383C92.4154 91.2383 92.5651 91.2546 92.7344 91.2871C92.9036 91.3132 93.0208 91.3424 93.0859 91.375ZM98.9453 102.195C98.2096 102.195 97.5423 102.072 96.9434 101.824C96.3509 101.57 95.8398 101.215 95.4102 100.76C94.987 100.304 94.6615 99.7637 94.4336 99.1387C94.2057 98.5137 94.0918 97.8301 94.0918 97.0879V96.6777C94.0918 95.8184 94.2188 95.0534 94.4727 94.3828C94.7266 93.7057 95.0716 93.1328 95.5078 92.6641C95.944 92.1953 96.4388 91.8405 96.9922 91.5996C97.5456 91.3587 98.1185 91.2383 98.7109 91.2383C99.4661 91.2383 100.117 91.3685 100.664 91.6289C101.217 91.8893 101.67 92.2539 102.021 92.7227C102.373 93.1849 102.633 93.7318 102.803 94.3633C102.972 94.9883 103.057 95.6719 103.057 96.4141V97.2246H95.166V95.75H101.25V95.6133C101.224 95.1445 101.126 94.6888 100.957 94.2461C100.794 93.8034 100.534 93.4388 100.176 93.1523C99.8177 92.8659 99.3294 92.7227 98.7109 92.7227C98.3008 92.7227 97.9232 92.8105 97.5781 92.9863C97.2331 93.1556 96.9368 93.4095 96.6895 93.748C96.4421 94.0866 96.25 94.5 96.1133 94.9883C95.9766 95.4766 95.9082 96.0397 95.9082 96.6777V97.0879C95.9082 97.5892 95.9766 98.0612 96.1133 98.5039C96.2565 98.9401 96.4616 99.3242 96.7285 99.6562C97.002 99.9883 97.3307 100.249 97.7148 100.438C98.1055 100.626 98.5482 100.721 99.043 100.721C99.681 100.721 100.221 100.59 100.664 100.33C101.107 100.07 101.494 99.7214 101.826 99.2852L102.92 100.154C102.692 100.499 102.402 100.828 102.051 101.141C101.699 101.453 101.266 101.707 100.752 101.902C100.244 102.098 99.6419 102.195 98.9453 102.195ZM113.096 100.906L116.035 91.4336H117.969L113.73 103.631C113.633 103.891 113.503 104.171 113.34 104.471C113.184 104.777 112.982 105.066 112.734 105.34C112.487 105.613 112.188 105.835 111.836 106.004C111.491 106.18 111.077 106.268 110.596 106.268C110.452 106.268 110.27 106.248 110.049 106.209C109.827 106.17 109.671 106.137 109.58 106.111L109.57 104.646C109.622 104.653 109.704 104.66 109.814 104.666C109.932 104.679 110.013 104.686 110.059 104.686C110.469 104.686 110.817 104.63 111.104 104.52C111.39 104.415 111.631 104.236 111.826 103.982C112.028 103.735 112.201 103.393 112.344 102.957L113.096 100.906ZM110.938 91.4336L113.682 99.6367L114.15 101.541L112.852 102.205L108.965 91.4336H110.938ZM118.965 96.834V96.6094C118.965 95.8477 119.076 95.1413 119.297 94.4902C119.518 93.8327 119.837 93.263 120.254 92.7812C120.671 92.293 121.175 91.9154 121.768 91.6484C122.36 91.375 123.024 91.2383 123.76 91.2383C124.502 91.2383 125.169 91.375 125.762 91.6484C126.361 91.9154 126.868 92.293 127.285 92.7812C127.708 93.263 128.031 93.8327 128.252 94.4902C128.473 95.1413 128.584 95.8477 128.584 96.6094V96.834C128.584 97.5957 128.473 98.3021 128.252 98.9531C128.031 99.6042 127.708 100.174 127.285 100.662C126.868 101.144 126.364 101.521 125.771 101.795C125.186 102.062 124.521 102.195 123.779 102.195C123.037 102.195 122.37 102.062 121.777 101.795C121.185 101.521 120.677 101.144 120.254 100.662C119.837 100.174 119.518 99.6042 119.297 98.9531C119.076 98.3021 118.965 97.5957 118.965 96.834ZM120.771 96.6094V96.834C120.771 97.3613 120.833 97.8594 120.957 98.3281C121.081 98.7904 121.266 99.2005 121.514 99.5586C121.768 99.9167 122.083 100.2 122.461 100.408C122.839 100.61 123.278 100.711 123.779 100.711C124.274 100.711 124.707 100.61 125.078 100.408C125.456 100.2 125.768 99.9167 126.016 99.5586C126.263 99.2005 126.449 98.7904 126.572 98.3281C126.702 97.8594 126.768 97.3613 126.768 96.834V96.6094C126.768 96.0885 126.702 95.597 126.572 95.1348C126.449 94.666 126.26 94.2526 126.006 93.8945C125.758 93.5299 125.446 93.2435 125.068 93.0352C124.697 92.8268 124.261 92.7227 123.76 92.7227C123.265 92.7227 122.829 92.8268 122.451 93.0352C122.08 93.2435 121.768 93.5299 121.514 93.8945C121.266 94.2526 121.081 94.666 120.957 95.1348C120.833 95.597 120.771 96.0885 120.771 96.6094ZM137.314 99.5586V91.4336H139.131V102H137.402L137.314 99.5586ZM137.656 97.332L138.408 97.3125C138.408 98.0156 138.333 98.6667 138.184 99.2656C138.04 99.8581 137.806 100.372 137.48 100.809C137.155 101.245 136.729 101.587 136.201 101.834C135.674 102.075 135.033 102.195 134.277 102.195C133.763 102.195 133.291 102.12 132.861 101.971C132.438 101.821 132.074 101.59 131.768 101.277C131.462 100.965 131.224 100.558 131.055 100.057C130.892 99.5553 130.811 98.9531 130.811 98.25V91.4336H132.617V98.2695C132.617 98.7448 132.669 99.1387 132.773 99.4512C132.884 99.7572 133.031 100.001 133.213 100.184C133.402 100.359 133.61 100.483 133.838 100.555C134.072 100.626 134.313 100.662 134.561 100.662C135.329 100.662 135.938 100.516 136.387 100.223C136.836 99.9232 137.158 99.5228 137.354 99.0215C137.555 98.5137 137.656 97.9505 137.656 97.332ZM148.809 87V102H146.992V87H148.809ZM151.23 96.834V96.6094C151.23 95.8477 151.341 95.1413 151.562 94.4902C151.784 93.8327 152.103 93.263 152.52 92.7812C152.936 92.293 153.441 91.9154 154.033 91.6484C154.626 91.375 155.29 91.2383 156.025 91.2383C156.768 91.2383 157.435 91.375 158.027 91.6484C158.626 91.9154 159.134 92.293 159.551 92.7812C159.974 93.263 160.296 93.8327 160.518 94.4902C160.739 95.1413 160.85 95.8477 160.85 96.6094V96.834C160.85 97.5957 160.739 98.3021 160.518 98.9531C160.296 99.6042 159.974 100.174 159.551 100.662C159.134 101.144 158.63 101.521 158.037 101.795C157.451 102.062 156.787 102.195 156.045 102.195C155.303 102.195 154.635 102.062 154.043 101.795C153.451 101.521 152.943 101.144 152.52 100.662C152.103 100.174 151.784 99.6042 151.562 98.9531C151.341 98.3021 151.23 97.5957 151.23 96.834ZM153.037 96.6094V96.834C153.037 97.3613 153.099 97.8594 153.223 98.3281C153.346 98.7904 153.532 99.2005 153.779 99.5586C154.033 99.9167 154.349 100.2 154.727 100.408C155.104 100.61 155.544 100.711 156.045 100.711C156.54 100.711 156.973 100.61 157.344 100.408C157.721 100.2 158.034 99.9167 158.281 99.5586C158.529 99.2005 158.714 98.7904 158.838 98.3281C158.968 97.8594 159.033 97.3613 159.033 96.834V96.6094C159.033 96.0885 158.968 95.597 158.838 95.1348C158.714 94.666 158.525 94.2526 158.271 93.8945C158.024 93.5299 157.712 93.2435 157.334 93.0352C156.963 92.8268 156.527 92.7227 156.025 92.7227C155.531 92.7227 155.094 92.8268 154.717 93.0352C154.346 93.2435 154.033 93.5299 153.779 93.8945C153.532 94.2526 153.346 94.666 153.223 95.1348C153.099 95.597 153.037 96.0885 153.037 96.6094ZM162.637 96.834V96.6094C162.637 95.8477 162.747 95.1413 162.969 94.4902C163.19 93.8327 163.509 93.263 163.926 92.7812C164.342 92.293 164.847 91.9154 165.439 91.6484C166.032 91.375 166.696 91.2383 167.432 91.2383C168.174 91.2383 168.841 91.375 169.434 91.6484C170.033 91.9154 170.54 92.293 170.957 92.7812C171.38 93.263 171.702 93.8327 171.924 94.4902C172.145 95.1413 172.256 95.8477 172.256 96.6094V96.834C172.256 97.5957 172.145 98.3021 171.924 98.9531C171.702 99.6042 171.38 100.174 170.957 100.662C170.54 101.144 170.036 101.521 169.443 101.795C168.857 102.062 168.193 102.195 167.451 102.195C166.709 102.195 166.042 102.062 165.449 101.795C164.857 101.521 164.349 101.144 163.926 100.662C163.509 100.174 163.19 99.6042 162.969 98.9531C162.747 98.3021 162.637 97.5957 162.637 96.834ZM164.443 96.6094V96.834C164.443 97.3613 164.505 97.8594 164.629 98.3281C164.753 98.7904 164.938 99.2005 165.186 99.5586C165.439 99.9167 165.755 100.2 166.133 100.408C166.51 100.61 166.95 100.711 167.451 100.711C167.946 100.711 168.379 100.61 168.75 100.408C169.128 100.2 169.44 99.9167 169.688 99.5586C169.935 99.2005 170.12 98.7904 170.244 98.3281C170.374 97.8594 170.439 97.3613 170.439 96.834V96.6094C170.439 96.0885 170.374 95.597 170.244 95.1348C170.12 94.666 169.932 94.2526 169.678 93.8945C169.43 93.5299 169.118 93.2435 168.74 93.0352C168.369 92.8268 167.933 92.7227 167.432 92.7227C166.937 92.7227 166.501 92.8268 166.123 93.0352C165.752 93.2435 165.439 93.5299 165.186 93.8945C164.938 94.2526 164.753 94.666 164.629 95.1348C164.505 95.597 164.443 96.0885 164.443 96.6094ZM176.338 87V102H174.521V87H176.338ZM182.793 91.4336L178.184 96.3652L175.605 99.041L175.459 97.1172L177.305 94.9102L180.586 91.4336H182.793ZM181.143 102L177.373 96.9609L178.311 95.3496L183.271 102H181.143ZM186.621 91.4336V102H184.805V91.4336H186.621ZM184.668 88.6309C184.668 88.3379 184.756 88.0905 184.932 87.8887C185.114 87.6868 185.381 87.5859 185.732 87.5859C186.077 87.5859 186.341 87.6868 186.523 87.8887C186.712 88.0905 186.807 88.3379 186.807 88.6309C186.807 88.9108 186.712 89.1517 186.523 89.3535C186.341 89.5488 186.077 89.6465 185.732 89.6465C185.381 89.6465 185.114 89.5488 184.932 89.3535C184.756 89.1517 184.668 88.9108 184.668 88.6309ZM191.328 93.6895V102H189.521V91.4336H191.23L191.328 93.6895ZM190.898 96.3164L190.146 96.2871C190.153 95.5645 190.26 94.8971 190.469 94.2852C190.677 93.6667 190.97 93.1296 191.348 92.6738C191.725 92.2181 192.174 91.8665 192.695 91.6191C193.223 91.3652 193.805 91.2383 194.443 91.2383C194.964 91.2383 195.433 91.3099 195.85 91.4531C196.266 91.5898 196.621 91.8112 196.914 92.1172C197.214 92.4232 197.441 92.8203 197.598 93.3086C197.754 93.7904 197.832 94.3796 197.832 95.0762V102H196.016V95.0566C196.016 94.5033 195.934 94.0605 195.771 93.7285C195.609 93.39 195.371 93.1458 195.059 92.9961C194.746 92.8398 194.362 92.7617 193.906 92.7617C193.457 92.7617 193.047 92.8561 192.676 93.0449C192.311 93.2337 191.995 93.4941 191.729 93.8262C191.468 94.1582 191.263 94.5391 191.113 94.9688C190.97 95.3919 190.898 95.8411 190.898 96.3164ZM207.422 91.4336H209.062V101.775C209.062 102.706 208.874 103.501 208.496 104.158C208.118 104.816 207.591 105.314 206.914 105.652C206.243 105.997 205.469 106.17 204.59 106.17C204.225 106.17 203.796 106.111 203.301 105.994C202.812 105.883 202.331 105.691 201.855 105.418C201.387 105.151 200.993 104.79 200.674 104.334L201.621 103.26C202.064 103.794 202.526 104.165 203.008 104.373C203.496 104.581 203.978 104.686 204.453 104.686C205.026 104.686 205.521 104.578 205.938 104.363C206.354 104.148 206.676 103.829 206.904 103.406C207.139 102.99 207.256 102.475 207.256 101.863V93.7578L207.422 91.4336ZM200.146 96.834V96.6289C200.146 95.8216 200.241 95.0892 200.43 94.4316C200.625 93.7676 200.902 93.1979 201.26 92.7227C201.624 92.2474 202.064 91.8828 202.578 91.6289C203.092 91.3685 203.672 91.2383 204.316 91.2383C204.98 91.2383 205.56 91.3555 206.055 91.5898C206.556 91.8177 206.979 92.153 207.324 92.5957C207.676 93.0319 207.952 93.5592 208.154 94.1777C208.356 94.7962 208.496 95.4961 208.574 96.2773V97.1758C208.503 97.9505 208.363 98.6471 208.154 99.2656C207.952 99.8841 207.676 100.411 207.324 100.848C206.979 101.284 206.556 101.619 206.055 101.854C205.553 102.081 204.967 102.195 204.297 102.195C203.665 102.195 203.092 102.062 202.578 101.795C202.07 101.528 201.634 101.154 201.27 100.672C200.905 100.19 200.625 99.6237 200.43 98.9727C200.241 98.3151 200.146 97.6022 200.146 96.834ZM201.953 96.6289V96.834C201.953 97.3613 202.005 97.8561 202.109 98.3184C202.22 98.7806 202.386 99.1875 202.607 99.5391C202.835 99.8906 203.125 100.167 203.477 100.369C203.828 100.564 204.248 100.662 204.736 100.662C205.335 100.662 205.83 100.535 206.221 100.281C206.611 100.027 206.921 99.6921 207.148 99.2754C207.383 98.8587 207.565 98.4062 207.695 97.918V95.5645C207.624 95.2064 207.513 94.8613 207.363 94.5293C207.22 94.1908 207.031 93.8913 206.797 93.6309C206.569 93.3639 206.286 93.1523 205.947 92.9961C205.609 92.8398 205.212 92.7617 204.756 92.7617C204.261 92.7617 203.835 92.8659 203.477 93.0742C203.125 93.276 202.835 93.556 202.607 93.9141C202.386 94.2656 202.22 94.6758 202.109 95.1445C202.005 95.6068 201.953 96.1016 201.953 96.6289ZM88.6768 131H86.8701V119.32C86.8701 118.559 87.0068 117.917 87.2803 117.396C87.5602 116.869 87.9606 116.472 88.4814 116.205C89.0023 115.932 89.6208 115.795 90.3369 115.795C90.5452 115.795 90.7536 115.808 90.9619 115.834C91.1768 115.86 91.3851 115.899 91.5869 115.951L91.4893 117.426C91.3525 117.393 91.1963 117.37 91.0205 117.357C90.8512 117.344 90.682 117.338 90.5127 117.338C90.1286 117.338 89.7965 117.416 89.5166 117.572C89.2432 117.722 89.0348 117.943 88.8916 118.236C88.7484 118.529 88.6768 118.891 88.6768 119.32V131ZM90.9229 120.434V121.82H85.2002V120.434H90.9229ZM92.4561 125.834V125.609C92.4561 124.848 92.5667 124.141 92.7881 123.49C93.0094 122.833 93.3285 122.263 93.7451 121.781C94.1618 121.293 94.6663 120.915 95.2588 120.648C95.8512 120.375 96.5153 120.238 97.251 120.238C97.9932 120.238 98.6605 120.375 99.2529 120.648C99.8519 120.915 100.36 121.293 100.776 121.781C101.2 122.263 101.522 122.833 101.743 123.49C101.965 124.141 102.075 124.848 102.075 125.609V125.834C102.075 126.596 101.965 127.302 101.743 127.953C101.522 128.604 101.2 129.174 100.776 129.662C100.36 130.144 99.8551 130.521 99.2627 130.795C98.6768 131.062 98.0127 131.195 97.2705 131.195C96.5283 131.195 95.861 131.062 95.2686 130.795C94.6761 130.521 94.1683 130.144 93.7451 129.662C93.3285 129.174 93.0094 128.604 92.7881 127.953C92.5667 127.302 92.4561 126.596 92.4561 125.834ZM94.2627 125.609V125.834C94.2627 126.361 94.3245 126.859 94.4482 127.328C94.5719 127.79 94.7575 128.201 95.0049 128.559C95.2588 128.917 95.5745 129.2 95.9521 129.408C96.3298 129.61 96.7692 129.711 97.2705 129.711C97.7653 129.711 98.1982 129.61 98.5693 129.408C98.9469 129.2 99.2594 128.917 99.5068 128.559C99.7542 128.201 99.9398 127.79 100.063 127.328C100.194 126.859 100.259 126.361 100.259 125.834V125.609C100.259 125.089 100.194 124.597 100.063 124.135C99.9398 123.666 99.751 123.253 99.4971 122.895C99.2497 122.53 98.9372 122.243 98.5596 122.035C98.1885 121.827 97.7523 121.723 97.251 121.723C96.7562 121.723 96.32 121.827 95.9424 122.035C95.5713 122.243 95.2588 122.53 95.0049 122.895C94.7575 123.253 94.5719 123.666 94.4482 124.135C94.3245 124.597 94.2627 125.089 94.2627 125.609ZM106.147 122.094V131H104.341V120.434H106.099L106.147 122.094ZM109.448 120.375L109.438 122.055C109.289 122.022 109.146 122.003 109.009 121.996C108.879 121.983 108.729 121.977 108.56 121.977C108.143 121.977 107.775 122.042 107.456 122.172C107.137 122.302 106.867 122.484 106.646 122.719C106.424 122.953 106.248 123.233 106.118 123.559C105.994 123.878 105.913 124.229 105.874 124.613L105.366 124.906C105.366 124.268 105.428 123.669 105.552 123.109C105.682 122.549 105.881 122.055 106.147 121.625C106.414 121.189 106.753 120.85 107.163 120.609C107.58 120.362 108.075 120.238 108.647 120.238C108.778 120.238 108.927 120.255 109.097 120.287C109.266 120.313 109.383 120.342 109.448 120.375ZM115.044 126.996H113.228C113.234 126.371 113.289 125.86 113.394 125.463C113.504 125.059 113.683 124.691 113.931 124.359C114.178 124.027 114.507 123.65 114.917 123.227C115.216 122.921 115.49 122.634 115.737 122.367C115.991 122.094 116.196 121.801 116.353 121.488C116.509 121.169 116.587 120.788 116.587 120.346C116.587 119.896 116.506 119.509 116.343 119.184C116.187 118.858 115.952 118.607 115.64 118.432C115.334 118.256 114.953 118.168 114.497 118.168C114.119 118.168 113.761 118.236 113.423 118.373C113.084 118.51 112.811 118.721 112.603 119.008C112.394 119.288 112.287 119.656 112.28 120.111H110.474C110.487 119.376 110.669 118.744 111.021 118.217C111.379 117.689 111.86 117.286 112.466 117.006C113.071 116.726 113.748 116.586 114.497 116.586C115.324 116.586 116.027 116.736 116.606 117.035C117.192 117.335 117.638 117.764 117.944 118.324C118.25 118.878 118.403 119.535 118.403 120.297C118.403 120.883 118.283 121.423 118.042 121.918C117.808 122.406 117.505 122.865 117.134 123.295C116.763 123.725 116.369 124.135 115.952 124.525C115.594 124.857 115.353 125.232 115.229 125.648C115.106 126.065 115.044 126.514 115.044 126.996ZM113.149 130.092C113.149 129.799 113.241 129.551 113.423 129.35C113.605 129.148 113.869 129.047 114.214 129.047C114.565 129.047 114.832 129.148 115.015 129.35C115.197 129.551 115.288 129.799 115.288 130.092C115.288 130.372 115.197 130.613 115.015 130.814C114.832 131.016 114.565 131.117 114.214 131.117C113.869 131.117 113.605 131.016 113.423 130.814C113.241 130.613 113.149 130.372 113.149 130.092ZM125.396 132.75H150.396V107.75H125.396V132.75Z" fill="black"/>
</svg>
