<svg width="18" height="18" viewBox="0 0 18 18" fill="none" xmlns="http://www.w3.org/2000/svg">
<g id="ph:file-html">
<path id="Vector" d="M15.1875 8.4375V6.1875C15.1876 6.11361 15.1731 6.04043 15.1448 5.97215C15.1166 5.90386 15.0752 5.84181 15.023 5.78953L11.0855 1.85203C11.0332 1.79981 10.9711 1.7584 10.9029 1.73017C10.8346 1.70194 10.7614 1.68744 10.6875 1.6875H3.9375C3.63913 1.6875 3.35298 1.80603 3.142 2.017C2.93103 2.22798 2.8125 2.51413 2.8125 2.8125V8.4375C2.8125 8.58668 2.87176 8.72976 2.97725 8.83525C3.08274 8.94074 3.22582 9 3.375 9C3.52418 9 3.66726 8.94074 3.77275 8.83525C3.87824 8.72976 3.9375 8.58668 3.9375 8.4375V2.8125H10.125V6.1875C10.125 6.33668 10.1843 6.47976 10.2898 6.58525C10.3952 6.69074 10.5383 6.75 10.6875 6.75H14.0625V8.4375C14.0625 8.58668 14.1218 8.72976 14.2273 8.83525C14.3327 8.94074 14.4758 9 14.625 9C14.7742 9 14.9173 8.94074 15.0227 8.83525C15.1282 8.72976 15.1875 8.58668 15.1875 8.4375ZM11.25 3.60773L13.2673 5.625H11.25V3.60773ZM4.78125 11.25V14.625C4.78125 14.7742 4.72199 14.9173 4.6165 15.0227C4.51101 15.1282 4.36793 15.1875 4.21875 15.1875C4.06957 15.1875 3.92649 15.1282 3.821 15.0227C3.71551 14.9173 3.65625 14.7742 3.65625 14.625V13.5H2.25V14.625C2.25 14.7742 2.19074 14.9173 2.08525 15.0227C1.97976 15.1282 1.83668 15.1875 1.6875 15.1875C1.53832 15.1875 1.39524 15.1282 1.28975 15.0227C1.18426 14.9173 1.125 14.7742 1.125 14.625V11.25C1.125 11.1008 1.18426 10.9577 1.28975 10.8523C1.39524 10.7468 1.53832 10.6875 1.6875 10.6875C1.83668 10.6875 1.97976 10.7468 2.08525 10.8523C2.19074 10.9577 2.25 11.1008 2.25 11.25V12.375H3.65625V11.25C3.65625 11.1008 3.71551 10.9577 3.821 10.8523C3.92649 10.7468 4.06957 10.6875 4.21875 10.6875C4.36793 10.6875 4.51101 10.7468 4.6165 10.8523C4.72199 10.9577 4.78125 11.1008 4.78125 11.25ZM8.71875 11.25C8.71875 11.3992 8.65949 11.5423 8.554 11.6477C8.44851 11.7532 8.30543 11.8125 8.15625 11.8125H7.59375V14.625C7.59375 14.7742 7.53449 14.9173 7.429 15.0227C7.32351 15.1282 7.18043 15.1875 7.03125 15.1875C6.88207 15.1875 6.73899 15.1282 6.6335 15.0227C6.52801 14.9173 6.46875 14.7742 6.46875 14.625V11.8125H5.90625C5.75707 11.8125 5.61399 11.7532 5.5085 11.6477C5.40301 11.5423 5.34375 11.3992 5.34375 11.25C5.34375 11.1008 5.40301 10.9577 5.5085 10.8523C5.61399 10.7468 5.75707 10.6875 5.90625 10.6875H8.15625C8.30543 10.6875 8.44851 10.7468 8.554 10.8523C8.65949 10.9577 8.71875 11.1008 8.71875 11.25ZM13.7812 11.25V14.625C13.7812 14.7742 13.722 14.9173 13.6165 15.0227C13.511 15.1282 13.3679 15.1875 13.2188 15.1875C13.0696 15.1875 12.9265 15.1282 12.821 15.0227C12.7155 14.9173 12.6562 14.7742 12.6562 14.625V12.9375L11.9812 13.8375C11.9289 13.9074 11.8609 13.9641 11.7828 14.0031C11.7047 14.0422 11.6186 14.0625 11.5312 14.0625C11.4439 14.0625 11.3578 14.0422 11.2797 14.0031C11.2016 13.9641 11.1336 13.9074 11.0813 13.8375L10.4062 12.9375V14.625C10.4062 14.7742 10.347 14.9173 10.2415 15.0227C10.136 15.1282 9.99293 15.1875 9.84375 15.1875C9.69457 15.1875 9.55149 15.1282 9.446 15.0227C9.34051 14.9173 9.28125 14.7742 9.28125 14.625V11.25C9.28125 11.1319 9.3184 11.0169 9.38743 10.9211C9.45646 10.8253 9.55387 10.7537 9.66587 10.7164C9.77787 10.679 9.89878 10.6779 10.0115 10.7131C10.1242 10.7483 10.2229 10.8181 10.2937 10.9125L11.5312 12.5627L12.7688 10.9125C12.8396 10.8181 12.9383 10.7483 13.051 10.7131C13.1637 10.6779 13.2846 10.679 13.3966 10.7164C13.5086 10.7537 13.606 10.8253 13.6751 10.9211C13.7441 11.0169 13.7812 11.1319 13.7812 11.25ZM17.7188 14.625C17.7188 14.7742 17.6595 14.9173 17.554 15.0227C17.4485 15.1282 17.3054 15.1875 17.1562 15.1875H15.1875C15.0383 15.1875 14.8952 15.1282 14.7898 15.0227C14.6843 14.9173 14.625 14.7742 14.625 14.625V11.25C14.625 11.1008 14.6843 10.9577 14.7898 10.8523C14.8952 10.7468 15.0383 10.6875 15.1875 10.6875C15.3367 10.6875 15.4798 10.7468 15.5852 10.8523C15.6907 10.9577 15.75 11.1008 15.75 11.25V14.0625H17.1562C17.3054 14.0625 17.4485 14.1218 17.554 14.2273C17.6595 14.3327 17.7188 14.4758 17.7188 14.625Z" fill="#111111"/>
</g>
</svg>
