<svg width="18" height="18" viewBox="0 0 18 18" fill="none" xmlns="http://www.w3.org/2000/svg">
<g id="ph:file-md">
<path id="Vector" d="M15.023 5.78953L11.0855 1.85203C11.0332 1.79981 10.9711 1.7584 10.9029 1.73017C10.8346 1.70194 10.7614 1.68744 10.6875 1.6875H3.9375C3.63913 1.6875 3.35298 1.80603 3.142 2.017C2.93103 2.22798 2.8125 2.51413 2.8125 2.8125V7.875C2.8125 8.02418 2.87176 8.16726 2.97725 8.27275C3.08274 8.37824 3.22582 8.4375 3.375 8.4375C3.52418 8.4375 3.66726 8.37824 3.77275 8.27275C3.87824 8.16726 3.9375 8.02418 3.9375 7.875V2.8125H10.125V6.1875C10.125 6.33668 10.1843 6.47976 10.2898 6.58525C10.3952 6.69074 10.5383 6.75 10.6875 6.75H14.0625V15.75C14.0625 15.8992 14.1218 16.0423 14.2273 16.1477C14.3327 16.2532 14.4758 16.3125 14.625 16.3125C14.7742 16.3125 14.9173 16.2532 15.0227 16.1477C15.1282 16.0423 15.1875 15.8992 15.1875 15.75V6.1875C15.1876 6.11361 15.1731 6.04043 15.1448 5.97215C15.1166 5.90386 15.0752 5.84181 15.023 5.78953ZM11.25 3.60773L13.2673 5.625H11.25V3.60773ZM10.125 10.125H9C8.85082 10.125 8.70774 10.1843 8.60225 10.2898C8.49676 10.3952 8.4375 10.5383 8.4375 10.6875V14.625C8.4375 14.7742 8.49676 14.9173 8.60225 15.0227C8.70774 15.1282 8.85082 15.1875 9 15.1875H10.125C10.7963 15.1875 11.4402 14.9208 11.9149 14.4461C12.3896 13.9714 12.6562 13.3276 12.6562 12.6562C12.6562 11.9849 12.3896 11.3411 11.9149 10.8664C11.4402 10.3917 10.7963 10.125 10.125 10.125ZM10.125 14.0625H9.5625V11.25H10.125C10.498 11.25 10.8556 11.3982 11.1194 11.6619C11.3831 11.9256 11.5312 12.2833 11.5312 12.6562C11.5312 13.0292 11.3831 13.3869 11.1194 13.6506C10.8556 13.9143 10.498 14.0625 10.125 14.0625ZM7.3125 10.6875V14.625C7.3125 14.7742 7.25324 14.9173 7.14775 15.0227C7.04226 15.1282 6.89918 15.1875 6.75 15.1875C6.60082 15.1875 6.45774 15.1282 6.35225 15.0227C6.24676 14.9173 6.1875 14.7742 6.1875 14.625V12.472L5.2418 13.8227C5.18992 13.8967 5.12098 13.9571 5.04081 13.9988C4.96064 14.0405 4.87161 14.0623 4.78125 14.0623C4.69089 14.0623 4.60186 14.0405 4.52169 13.9988C4.44152 13.9571 4.37258 13.8967 4.3207 13.8227L3.375 12.472V14.625C3.375 14.7742 3.31574 14.9173 3.21025 15.0227C3.10476 15.1282 2.96168 15.1875 2.8125 15.1875C2.66332 15.1875 2.52024 15.1282 2.41475 15.0227C2.30926 14.9173 2.25 14.7742 2.25 14.625V10.6875C2.25005 10.5679 2.2882 10.4515 2.35892 10.3551C2.42963 10.2586 2.52924 10.1873 2.64327 10.1513C2.75731 10.1153 2.87984 10.1166 2.99308 10.155C3.10633 10.1934 3.20439 10.2669 3.27305 10.3648L4.78125 12.5191L6.28945 10.3648C6.35811 10.2669 6.45617 10.1934 6.56942 10.155C6.68266 10.1166 6.80519 10.1153 6.91923 10.1513C7.03326 10.1873 7.13287 10.2586 7.20358 10.3551C7.2743 10.4515 7.31245 10.5679 7.3125 10.6875Z" fill="#111111"/>
</g>
</svg>
