<svg width="18" height="18" viewBox="0 0 18 18" fill="none" xmlns="http://www.w3.org/2000/svg">
<g id="logos:microsoft-edge" clip-path="url(#clip0_527_208)">
<path id="Vector" d="M16.2423 13.3943C16.0032 13.5209 15.7571 13.6334 15.504 13.7248C14.6954 14.0271 13.8446 14.1818 12.9798 14.1818C9.654 14.1818 6.75713 11.8967 6.75713 8.95762C6.76416 8.15605 7.20713 7.41777 7.91025 7.03809C4.90088 7.16465 4.12744 10.3006 4.12744 12.1357C4.12744 17.3318 8.91572 17.8592 9.94932 17.8592C10.5048 17.8592 11.3415 17.6975 11.8478 17.5357L11.9392 17.5076C13.8798 16.8396 15.5251 15.5318 16.622 13.7951C16.7063 13.6615 16.6642 13.4928 16.5376 13.4084C16.4462 13.3521 16.3337 13.3451 16.2423 13.3943Z" fill="url(#paint0_linear_527_208)"/>
<path id="Vector_2" opacity="0.35" d="M16.2423 13.3943C16.0032 13.5209 15.7571 13.6334 15.504 13.7248C14.6954 14.0271 13.8446 14.1818 12.9798 14.1818C9.654 14.1818 6.75713 11.8967 6.75713 8.95762C6.76416 8.15605 7.20713 7.41777 7.91025 7.03809C4.90088 7.16465 4.12744 10.3006 4.12744 12.1357C4.12744 17.3318 8.91572 17.8592 9.94932 17.8592C10.5048 17.8592 11.3415 17.6975 11.8478 17.5357L11.9392 17.5076C13.8798 16.8396 15.5251 15.5318 16.622 13.7951C16.7063 13.6615 16.6642 13.4928 16.5376 13.4084C16.4462 13.3521 16.3337 13.3451 16.2423 13.3943Z" fill="url(#paint1_radial_527_208)"/>
<path id="Vector_3" d="M7.43183 16.9735C6.80605 16.5868 6.26464 16.0735 5.83573 15.4759C3.98651 12.9446 4.54198 9.39385 7.07323 7.54463C7.34042 7.35479 7.61464 7.179 7.90995 7.03838C8.12792 6.93291 8.50058 6.7501 8.9998 6.75713C9.70995 6.76416 10.3779 7.10166 10.8068 7.67119C11.0881 8.05088 11.2498 8.50791 11.2568 8.98604C11.2568 8.97197 12.9795 3.38916 5.63183 3.38916C2.54511 3.38916 0.00682747 6.32119 0.00682747 8.8876C-0.00723503 10.2446 0.288077 11.5946 0.857609 12.8251C2.79823 16.9595 7.52323 18.9845 11.8545 17.5431C10.3709 18.0071 8.7537 17.8032 7.43183 16.9735Z" fill="url(#paint2_linear_527_208)"/>
<path id="Vector_4" opacity="0.41" d="M7.43183 16.9735C6.80605 16.5868 6.26464 16.0735 5.83573 15.4759C3.98651 12.9446 4.54198 9.39385 7.07323 7.54463C7.34042 7.35479 7.61464 7.179 7.90995 7.03838C8.12792 6.93291 8.50058 6.7501 8.9998 6.75713C9.70995 6.76416 10.3779 7.10166 10.8068 7.67119C11.0881 8.05088 11.2498 8.50791 11.2568 8.98604C11.2568 8.97197 12.9795 3.38916 5.63183 3.38916C2.54511 3.38916 0.00682747 6.32119 0.00682747 8.8876C-0.00723503 10.2446 0.288077 11.5946 0.857609 12.8251C2.79823 16.9595 7.52323 18.9845 11.8545 17.5431C10.3709 18.0071 8.7537 17.8032 7.43183 16.9735Z" fill="url(#paint3_radial_527_208)"/>
<path id="Vector_5" d="M10.7086 10.4695C10.6523 10.5398 10.4766 10.6453 10.4766 10.8703C10.4766 11.0531 10.5961 11.2289 10.807 11.3766C11.8195 12.0797 13.725 11.9883 13.732 11.9883C14.4844 11.9883 15.2156 11.7844 15.8625 11.4047C17.1844 10.6312 18 9.21797 18 7.68516C18.0211 6.11016 17.4375 5.0625 17.2055 4.59844C15.7148 1.68047 12.4945 0 9 0C4.07812 0 0.0703125 3.95156 0 8.87344C0.0351562 6.30703 2.5875 4.23281 5.625 4.23281C5.87109 4.23281 7.27734 4.25391 8.57812 4.94297C9.72422 5.54766 10.3289 6.27187 10.7438 6.99609C11.1797 7.74844 11.257 8.69063 11.257 9.07031C11.257 9.44297 11.0672 10.0055 10.7086 10.4695Z" fill="url(#paint4_radial_527_208)"/>
<path id="Vector_6" d="M10.7086 10.4695C10.6523 10.5398 10.4766 10.6453 10.4766 10.8703C10.4766 11.0531 10.5961 11.2289 10.807 11.3766C11.8195 12.0797 13.725 11.9883 13.732 11.9883C14.4844 11.9883 15.2156 11.7844 15.8625 11.4047C17.1844 10.6312 18 9.21797 18 7.68516C18.0211 6.11016 17.4375 5.0625 17.2055 4.59844C15.7148 1.68047 12.4945 0 9 0C4.07812 0 0.0703125 3.95156 0 8.87344C0.0351562 6.30703 2.5875 4.23281 5.625 4.23281C5.87109 4.23281 7.27734 4.25391 8.57812 4.94297C9.72422 5.54766 10.3289 6.27187 10.7438 6.99609C11.1797 7.74844 11.257 8.69063 11.257 9.07031C11.257 9.44297 11.0672 10.0055 10.7086 10.4695Z" fill="url(#paint5_radial_527_208)"/>
</g>
<defs>
<linearGradient id="paint0_linear_527_208" x1="4.12772" y1="12.4465" x2="16.6632" y2="12.4465" gradientUnits="userSpaceOnUse">
<stop stop-color="#0C59A4"/>
<stop offset="1" stop-color="#114A8B"/>
</linearGradient>
<radialGradient id="paint1_radial_527_208" cx="0" cy="0" r="1" gradientUnits="userSpaceOnUse" gradientTransform="translate(11.0526 12.5461) scale(6.70574 6.36974)">
<stop offset="0.72" stop-opacity="0"/>
<stop offset="0.95" stop-opacity="0.53"/>
<stop offset="1"/>
</radialGradient>
<linearGradient id="paint2_linear_527_208" x1="10.7415" y1="7.01349" x2="2.91059" y2="15.5432" gradientUnits="userSpaceOnUse">
<stop stop-color="#1B9DE2"/>
<stop offset="0.16" stop-color="#1595DF"/>
<stop offset="0.67" stop-color="#0680D7"/>
<stop offset="1" stop-color="#0078D4"/>
</linearGradient>
<radialGradient id="paint3_radial_527_208" cx="0" cy="0" r="1" gradientUnits="userSpaceOnUse" gradientTransform="translate(4.96446 13.993) rotate(-81.3826) scale(10.0827 8.14738)">
<stop offset="0.76" stop-opacity="0"/>
<stop offset="0.95" stop-opacity="0.5"/>
<stop offset="1"/>
</radialGradient>
<radialGradient id="paint4_radial_527_208" cx="0" cy="0" r="1" gradientUnits="userSpaceOnUse" gradientTransform="translate(1.81769 3.33231) rotate(92.2911) scale(14.2419 30.3369)">
<stop stop-color="#35C1F1"/>
<stop offset="0.11" stop-color="#34C1ED"/>
<stop offset="0.23" stop-color="#2FC2DF"/>
<stop offset="0.31" stop-color="#2BC3D2"/>
<stop offset="0.67" stop-color="#36C752"/>
</radialGradient>
<radialGradient id="paint5_radial_527_208" cx="0" cy="0" r="1" gradientUnits="userSpaceOnUse" gradientTransform="translate(16.8792 5.44259) rotate(73.7366) scale(6.84291 5.56572)">
<stop stop-color="#66EB6E"/>
<stop offset="1" stop-color="#66EB6E" stop-opacity="0"/>
</radialGradient>
<clipPath id="clip0_527_208">
<rect width="18" height="18" fill="white"/>
</clipPath>
</defs>
</svg>
