<svg width="18" height="18" viewBox="0 0 18 18" fill="none" xmlns="http://www.w3.org/2000/svg">
<g id="icon 1" clip-path="url(#clip0_670_193)">
<path id="Vector" d="M2.88 0H15.12C16.704 0 18 1.296 18 2.88V15.12C18 16.704 16.704 18 15.12 18H2.88C1.296 18 0 16.704 0 15.12V2.88C0 1.296 1.296 0 2.88 0Z" fill="#FFD766"/>
<path id="Vector_2" d="M12.888 11.1241H12.42V9.64808C12.42 9.61208 12.384 9.57608 12.348 9.57608H9.28804V8.10008H11.304C11.376 8.10008 11.448 8.02808 11.448 7.95608V5.72408C11.448 5.65208 11.376 5.58008 11.304 5.58008H6.69604C6.62404 5.58008 6.55204 5.65208 6.55204 5.72408V7.95608C6.55204 8.02808 6.62404 8.10008 6.69604 8.10008H8.71204V9.61208H5.65204C5.61604 9.61208 5.58004 9.64808 5.58004 9.68408V11.1601H5.11204C5.07604 11.1241 5.04004 11.1601 5.04004 11.1961V12.6721C5.04004 12.7081 5.07604 12.7441 5.11204 12.7441H6.58804C6.62404 12.7441 6.66004 12.7081 6.66004 12.6721V11.1961C6.66004 11.1601 6.62404 11.1241 6.58804 11.1241H6.12004V10.2241C6.12004 10.1881 6.15604 10.1521 6.19204 10.1521H8.71204V11.1241H8.24404C8.20804 11.1241 8.17204 11.1601 8.17204 11.1961V12.6721C8.17204 12.7081 8.20804 12.7441 8.24404 12.7441H9.72004C9.75604 12.7441 9.79204 12.7081 9.79204 12.6721V11.1961C9.79204 11.1601 9.75604 11.1241 9.72004 11.1241H9.25204V10.1521H11.772C11.808 10.1521 11.844 10.1881 11.844 10.2241V11.1241H11.376C11.34 11.1241 11.304 11.1601 11.304 11.1961V12.6721C11.304 12.7081 11.34 12.7441 11.376 12.7441H12.852C12.888 12.7441 12.924 12.7081 12.924 12.6721V11.1961C12.96 11.1601 12.924 11.1241 12.888 11.1241Z" fill="white"/>
</g>
<defs>
<clipPath id="clip0_670_193">
<rect width="18" height="18" fill="white"/>
</clipPath>
</defs>
</svg>
