<svg width="23" height="23" viewBox="0 0 23 23" fill="none" xmlns="http://www.w3.org/2000/svg">
<g id="Group 337">
<circle id="Ellipse 59" cx="11.5" cy="11.5" r="11.5" fill="#FDCF01"/>
<g id="Group 336">
<path id="Vector" d="M17.0714 12.4286H12.4286V17.0714C12.4286 17.5821 12.0107 18 11.5 18C10.9893 18 10.5714 17.5821 10.5714 17.0714V12.4286H5.92857C5.41786 12.4286 5 12.0107 5 11.5C5 10.9893 5.41786 10.5714 5.92857 10.5714H10.5714V5.92857C10.5714 5.41786 10.9893 5 11.5 5C12.0107 5 12.4286 5.41786 12.4286 5.92857V10.5714H17.0714C17.5821 10.5714 18 10.9893 18 11.5C18 12.0107 17.5821 12.4286 17.0714 12.4286Z" fill="#282828"/>
</g>
</g>
</svg>
