<svg width="18" height="18" viewBox="0 0 18 18" fill="none" xmlns="http://www.w3.org/2000/svg">
<g id="carbon:paste">
<path id="Vector" d="M14.625 11.25H10.0294L11.4806 9.79312L10.6875 9L7.875 11.8125L10.6875 14.625L11.4806 13.8319L10.0294 12.375H14.625V16.875H15.75V12.375C15.75 12.0766 15.6315 11.7905 15.4205 11.5795C15.2095 11.3685 14.9234 11.25 14.625 11.25Z" fill="#282828"/>
<path id="Vector_2" d="M13.3369 5.22563L9.39937 1.28813C9.34681 1.236 9.28448 1.19476 9.21595 1.16676C9.14741 1.13877 9.07403 1.12458 9 1.12501H3.375C3.07663 1.12501 2.79048 1.24354 2.5795 1.45451C2.36853 1.66549 2.25 1.95164 2.25 2.25001V15.75C2.25 16.0484 2.36853 16.3345 2.5795 16.5455C2.79048 16.7565 3.07663 16.875 3.375 16.875H7.875V15.75H3.375V2.25001H7.875V5.62501C7.875 5.92338 7.99353 6.20953 8.2045 6.4205C8.41548 6.63148 8.70163 6.75001 9 6.75001H12.375V7.87501H13.5V5.62501C13.5004 5.55098 13.4862 5.4776 13.4582 5.40906C13.4303 5.34053 13.389 5.27819 13.3369 5.22563ZM9 2.48063L12.1444 5.62501H9V2.48063Z" fill="#282828"/>
</g>
</svg>
