<svg width="70" height="70" viewBox="0 0 70 70" fill="none" xmlns="http://www.w3.org/2000/svg">
<g id="vscode-icons:file-type-powerpoint2">
<path id="Vector" d="M40.5475 5.07715V11.34C47.985 11.3815 56.6409 11.2634 64.0719 11.375C65.4763 11.375 65.5375 12.6175 65.555 13.7025C65.6731 26.7006 65.5266 40.0728 65.625 53.0775C65.5988 53.5893 65.6119 55.4837 65.5966 56.0218C65.5484 57.8222 64.6472 57.9009 62.8469 57.9556C62.5581 57.9556 61.7094 57.9687 61.4294 57.9818C54.4709 57.9468 47.5125 57.9621 40.5475 57.9621V64.9228L4.375 59.3556V10.6596L40.5475 5.07715Z" fill="#D33922"/>
<path id="Vector_2" d="M40.5456 13.4268H63.5144V55.8643H40.5456V50.3124H57.245V47.5233H40.5456V44.0452H57.245V41.2627H40.5522C40.5522 39.8977 40.5522 38.5349 40.5391 37.1721C41.9053 37.665 43.3643 37.8471 44.8098 37.7052C46.2553 37.5633 47.651 37.1009 48.8953 36.3518C50.1636 35.5183 51.2143 34.3938 51.9597 33.0719C52.7052 31.7499 53.1238 30.2689 53.1806 28.7524C50.1181 28.7305 47.0709 28.7393 44.0237 28.7393C44.0237 25.7118 44.0587 22.6864 43.9603 19.6655C42.8184 19.8843 41.6787 20.1249 40.5434 20.3677V13.4289" fill="white"/>
<path id="Vector_3" d="M45.4245 18.2087C47.7973 18.3574 50.035 19.3644 51.7199 21.0416C53.4048 22.7189 54.4219 24.952 54.5814 27.3241C51.5189 27.3591 48.4717 27.3459 45.418 27.3459V18.2087" fill="#D33922"/>
<path id="Vector_4" d="M15.5295 23.4632C19.3073 23.6447 23.8857 21.9669 27.0182 24.7997C30.0173 28.4397 29.2232 35.1335 24.7782 37.31C23.162 37.95 21.4099 38.1698 19.6857 37.9488C19.6857 40.67 19.6726 43.3913 19.6857 46.1104C18.3076 45.9922 16.9229 45.8741 15.5448 45.7625C15.4814 38.325 15.4682 30.8875 15.5448 23.45" fill="white"/>
<path id="Vector_5" d="M19.6726 27.2257C21.0441 27.1623 22.7351 26.9129 23.6669 28.1992C24.0395 28.8996 24.2418 29.6779 24.2574 30.4711C24.273 31.2643 24.1014 32.05 23.7566 32.7645C22.9626 34.1973 21.1688 34.0595 19.7841 34.2257C19.6376 31.8939 19.6529 29.5642 19.6726 27.2257Z" fill="#D33922"/>
</g>
</svg>
