<svg width="18" height="18" viewBox="0 0 18 18" fill="none" xmlns="http://www.w3.org/2000/svg">
<g id="vscode-icons:file-type-powerpoint2">
<path id="Vector" d="M10.4265 1.30566V2.9161C12.339 2.92679 14.5648 2.89641 16.4756 2.9251C16.8368 2.9251 16.8525 3.2446 16.857 3.5236C16.8874 6.86598 16.8497 10.3045 16.875 13.6486C16.8682 13.7802 16.8716 14.2674 16.8677 14.4057C16.8553 14.8687 16.6236 14.8889 16.1606 14.903C16.0864 14.903 15.8681 14.9064 15.7961 14.9097C14.0068 14.9007 12.2175 14.9047 10.4265 14.9047V16.6945L1.125 15.263V2.74116L10.4265 1.30566Z" fill="#D33922"/>
<path id="Vector_2" d="M10.4265 3.45215H16.3327V14.3646H10.4265V12.937H14.7206V12.2198H10.4265V11.3255H14.7206V10.61H10.4282C10.4282 10.259 10.4282 9.90852 10.4248 9.55809C10.7761 9.68483 11.1513 9.73167 11.523 9.69518C11.8947 9.65869 12.2536 9.53979 12.5736 9.34715C12.8997 9.13284 13.1699 8.84367 13.3615 8.50375C13.5532 8.16382 13.6609 7.783 13.6755 7.39302C12.888 7.3874 12.1044 7.38965 11.3209 7.38965C11.3209 6.61115 11.3299 5.83321 11.3046 5.0564C11.0109 5.11265 10.7179 5.17452 10.4259 5.23696V3.45271" fill="white"/>
<path id="Vector_3" d="M11.6804 4.68262C12.2905 4.72085 12.8659 4.97977 13.2992 5.41108C13.7325 5.84238 13.994 6.41659 14.035 7.02655C13.2475 7.03555 12.464 7.03218 11.6787 7.03218V4.68262" fill="#D33922"/>
<path id="Vector_4" d="M3.99397 6.03306C4.9654 6.07975 6.14272 5.64831 6.94822 6.37675C7.7194 7.31275 7.51522 9.034 6.37222 9.59369C5.95662 9.75826 5.50608 9.81477 5.06272 9.75794C5.06272 10.4577 5.05934 11.1574 5.06272 11.8566C4.70834 11.8263 4.35228 11.7959 3.9979 11.7672C3.98159 9.85469 3.97822 7.94219 3.9979 6.02969" fill="white"/>
<path id="Vector_5" d="M5.05885 7.00121C5.41154 6.9849 5.84635 6.92078 6.08598 7.25153C6.18179 7.43163 6.2338 7.63178 6.23781 7.83574C6.24182 8.0397 6.1977 8.24174 6.10904 8.42546C5.90485 8.7939 5.4436 8.75846 5.08754 8.80121C5.04985 8.20159 5.05379 7.60253 5.05885 7.00121Z" fill="#D33922"/>
</g>
</svg>
