<svg width="19" height="19" viewBox="0 0 19 19" fill="none" xmlns="http://www.w3.org/2000/svg">
<g id="fluent:rename-24-regular">
<path id="Vector" d="M7.71745 1.58325H10.8825C11.033 1.5833 11.1778 1.64045 11.2877 1.74315C11.3976 1.84585 11.4645 1.98645 11.4747 2.13653C11.485 2.28662 11.4379 2.435 11.3429 2.5517C11.248 2.66839 11.1123 2.7447 10.9633 2.76521L10.8825 2.77075H9.89453V16.2291H10.8802C11.0236 16.2291 11.1623 16.2811 11.2704 16.3754C11.3785 16.4697 11.4489 16.5999 11.4684 16.7421L11.4739 16.8228C11.4739 16.9663 11.4219 17.1049 11.3276 17.2131C11.2333 17.3212 11.1031 17.3915 10.9609 17.411L10.8802 17.4166H7.71745C7.56701 17.4165 7.4222 17.3594 7.31228 17.2567C7.20236 17.154 7.13551 17.0134 7.12526 16.8633C7.11501 16.7132 7.16211 16.5648 7.25704 16.4481C7.35197 16.3314 7.48767 16.2551 7.6367 16.2346L7.71745 16.2291H8.70703V2.77075H7.71745C7.57397 2.77075 7.43534 2.71878 7.32721 2.62448C7.21908 2.53017 7.14875 2.3999 7.12924 2.25775L7.1237 2.177C7.1237 2.03352 7.17566 1.8949 7.26997 1.78677C7.36428 1.67863 7.49455 1.60831 7.6367 1.58879L7.71745 1.58325ZM14.4434 3.95588C15.1256 3.95651 15.7797 4.22778 16.2621 4.71016C16.7445 5.19254 17.0157 5.84661 17.0164 6.52879L17.0195 12.4695C17.0198 13.1265 16.7687 13.7588 16.3176 14.2366C15.8666 14.7144 15.2499 15.0016 14.5939 15.0392L14.4466 15.0432H10.6902V13.8557H14.4925C14.8521 13.8437 15.1929 13.6924 15.4429 13.4337C15.6929 13.175 15.8324 12.8292 15.832 12.4695L15.8297 6.528C15.829 6.16049 15.6826 5.80822 15.4226 5.5485C15.1626 5.28877 14.8102 5.14279 14.4427 5.14259H10.6902V3.95509L14.4434 3.95588ZM7.91536 3.95588V5.14338H4.15495C3.78751 5.14338 3.43513 5.28934 3.17531 5.54916C2.91549 5.80897 2.76953 6.16136 2.76953 6.52879V12.4695C2.76953 13.235 3.3902 13.8549 4.15495 13.8549H7.91141V15.0424H4.15495C3.47257 15.0424 2.81814 14.7713 2.33562 14.2888C1.85311 13.8063 1.58203 13.1518 1.58203 12.4695V6.52879C1.58203 5.84641 1.85311 5.19198 2.33562 4.70947C2.81814 4.22695 3.47257 3.95588 4.15495 3.95588H7.91536Z" fill="#282828"/>
</g>
</svg>
