<svg width="24" height="24" viewBox="0 0 24 24" fill="none" xmlns="http://www.w3.org/2000/svg">
<path fill-rule="evenodd" clip-rule="evenodd" d="M0 12C0 6.3432 0 3.5148 1.7568 1.7568C3.516 0 6.3432 0 12 0C17.6568 0 20.4852 0 22.242 1.7568C24 3.516 24 6.3432 24 12C24 17.6568 24 20.4852 22.242 22.242C20.4864 24 17.6568 24 12 24C6.3432 24 3.5148 24 1.7568 22.242C0 20.4864 0 17.6568 0 12ZM16.722 4.3104C16.8876 4.37786 17.0293 4.49309 17.1291 4.64142C17.2289 4.78974 17.2823 4.96442 17.2824 5.1432V8.4012C17.2824 8.6399 17.1876 8.86881 17.0188 9.0376C16.85 9.20638 16.6211 9.3012 16.3824 9.3012H13.2C13.0229 9.3013 12.8496 9.24912 12.702 9.15121C12.5544 9.0533 12.439 8.914 12.3702 8.75077C12.3014 8.58754 12.2823 8.40764 12.3152 8.2336C12.3482 8.05957 12.4318 7.89913 12.5556 7.7724L13.47 6.8364C12.5868 6.56505 11.6458 6.54351 10.7511 6.77416C9.85643 7.00482 9.04309 7.47867 8.4012 8.1432C6.3996 10.1916 6.3996 13.5228 8.4012 15.5712C8.86779 16.0544 9.4269 16.4387 10.0452 16.7011C10.6635 16.9636 11.3283 17.0989 12 17.0989C12.6717 17.0989 13.3365 16.9636 13.9548 16.7011C14.5731 16.4387 15.1322 16.0544 15.5988 15.5712C16.3871 14.7631 16.8952 13.7233 17.0484 12.6048C17.118 12.1032 17.5164 11.6808 18.0228 11.6808C18.51 11.6808 18.9132 12.0708 18.8664 12.5556C18.7139 14.1647 18.0152 15.6731 16.8864 16.83C16.2522 17.4848 15.4928 18.0055 14.6533 18.361C13.8139 18.7166 12.9116 18.8998 12 18.8998C11.0884 18.8998 10.1861 18.7166 9.34665 18.361C8.50724 18.0055 7.74785 17.4848 7.1136 16.83C4.4292 14.082 4.4292 9.6336 7.1136 6.8856C8.09265 5.87405 9.36154 5.19133 10.7451 4.93168C12.1287 4.67202 13.5588 4.84824 14.838 5.436L15.738 4.5144C15.8631 4.38639 16.0236 4.29861 16.1989 4.26227C16.3742 4.22593 16.5563 4.24269 16.722 4.3104Z" fill="#282828"/>
</svg>
