<svg width="24" height="24" viewBox="0 0 24 24" fill="none" xmlns="http://www.w3.org/2000/svg">
<path d="M4.54333 0C3.33836 0 2.18275 0.485951 1.33071 1.35095C0.478671 2.21595 0 3.38914 0 4.61243V16.9122C0 18.1355 0.478671 19.3087 1.33071 20.1737C2.18275 21.0387 3.33836 21.5247 4.54333 21.5247H9.99683C9.19687 19.9332 8.91397 18.1255 9.18873 16.3607C9.46349 14.596 10.2818 12.9649 11.5262 11.7015C12.7707 10.4382 14.3773 9.60742 16.1156 9.32848C17.8539 9.04954 19.6346 9.33674 21.2022 10.1489V4.61243C21.2022 3.38914 20.7235 2.21595 19.8715 1.35095C19.0194 0.485951 17.8638 0 16.6589 0H4.54333ZM9.62277 5.22127C9.69329 5.29268 9.74923 5.37751 9.78741 5.4709C9.82558 5.5643 9.84523 5.66442 9.84523 5.76553C9.84523 5.86665 9.82558 5.96677 9.78741 6.06017C9.74923 6.15356 9.69329 6.23839 9.62277 6.3098L6.97249 9.00038C6.83454 9.14027 6.64875 9.22074 6.45381 9.22504C6.25887 9.22933 6.06982 9.15712 5.92601 9.02345L4.79018 7.97028C4.713 7.9033 4.64987 7.82125 4.60456 7.72901C4.55924 7.63677 4.53266 7.53622 4.52639 7.43333C4.52013 7.33045 4.53431 7.22734 4.5681 7.13014C4.60188 7.03293 4.65457 6.94361 4.72304 6.8675C4.79151 6.79139 4.87436 6.73003 4.96666 6.68708C5.05896 6.64413 5.15883 6.62047 5.26032 6.61749C5.36182 6.61452 5.46286 6.6323 5.55745 6.66977C5.65204 6.70724 5.73823 6.76364 5.81092 6.83562L6.41215 7.39218L8.55054 5.22127C8.62088 5.14968 8.70444 5.09288 8.79644 5.05412C8.88843 5.01537 8.98705 4.99542 9.08666 4.99542C9.18626 4.99542 9.28488 5.01537 9.37687 5.05412C9.46887 5.09288 9.55243 5.14968 9.62277 5.22127ZM8.55054 12.9086C8.69273 12.7643 8.88557 12.6832 9.08666 12.6832C9.28774 12.6832 9.48058 12.7643 9.62277 12.9086C9.76495 13.053 9.84483 13.2488 9.84483 13.4529C9.84483 13.6571 9.76495 13.8528 9.62277 13.9972L6.97249 16.6878C6.83454 16.8277 6.64875 16.9081 6.45381 16.9124C6.25887 16.9167 6.06982 16.8445 5.92601 16.7108L4.79018 15.6577C4.64951 15.5183 4.56769 15.329 4.56202 15.1295C4.55635 14.9301 4.62727 14.7363 4.75979 14.589C4.89232 14.4416 5.07607 14.3524 5.27221 14.3401C5.46836 14.3278 5.66153 14.3934 5.81092 14.523L6.41215 15.0811L8.55054 12.9086ZM12.1155 7.68738C11.9147 7.68738 11.7221 7.60639 11.5801 7.46222C11.4381 7.31806 11.3583 7.12252 11.3583 6.91864C11.3583 6.71476 11.4381 6.51923 11.5801 6.37506C11.7221 6.2309 11.9147 6.1499 12.1155 6.1499H15.9016C16.1025 6.1499 16.2951 6.2309 16.4371 6.37506C16.5791 6.51923 16.6589 6.71476 16.6589 6.91864C16.6589 7.12252 16.5791 7.31806 16.4371 7.46222C16.2951 7.60639 16.1025 7.68738 15.9016 7.68738H12.1155ZM11.5613 16.7892C11.9523 16.6877 12.3195 16.5078 12.6411 16.2601C12.9627 16.0125 13.2323 15.7021 13.4341 15.3471C13.6358 14.9922 13.7657 14.5999 13.816 14.1933C13.8663 13.7867 13.836 13.3739 13.7269 12.9794L13.4907 12.123C13.8773 11.8196 14.2923 11.5634 14.7355 11.3543L15.2459 11.9047C15.529 12.2095 15.8706 12.4523 16.2495 12.6183C16.6284 12.7843 17.0367 12.8699 17.4494 12.8699C17.8621 12.8699 18.2704 12.7843 18.6493 12.6183C19.0283 12.4523 19.3698 12.2095 19.6529 11.9047L20.1406 11.3773C20.5929 11.5926 21.0144 11.858 21.4051 12.1737L21.2143 12.8225C21.0962 13.2239 21.06 13.6455 21.1081 14.0615C21.1562 14.4775 21.2876 14.8792 21.494 15.2418C21.7005 15.6045 21.9778 15.9205 22.3089 16.1704C22.6399 16.4204 23.0178 16.5991 23.4193 16.6955L23.9494 16.8215C24.0114 17.3406 24.0164 17.865 23.9645 18.3851L23.2679 18.5666C22.8765 18.6678 22.5091 18.8474 22.1871 19.0949C21.8652 19.3424 21.5952 19.6528 21.3932 20.0078C21.1911 20.3628 21.061 20.7552 21.0105 21.162C20.96 21.5687 20.9902 21.9817 21.0992 22.3764L21.3355 23.2313C20.9488 23.5347 20.5338 23.7909 20.0906 24L19.5802 23.4496C19.2971 23.145 18.9557 22.9024 18.5769 22.7366C18.1981 22.5707 17.79 22.4852 17.3775 22.4852C16.965 22.4852 16.5568 22.5707 16.178 22.7366C15.7993 22.9024 15.4578 23.145 15.1747 23.4496L14.6901 23.9846C14.2401 23.768 13.8154 23.5009 13.424 23.1882L13.6148 22.5379C13.7332 22.1364 13.7695 21.7147 13.7216 21.2985C13.6736 20.8823 13.5423 20.4804 13.3358 20.1176C13.1293 19.7548 12.852 19.4386 12.5208 19.1886C12.1896 18.9385 11.8115 18.7598 11.4098 18.6634L10.8813 18.5373C10.8194 18.0188 10.8143 17.4949 10.8661 16.9753L11.5613 16.7892ZM18.929 17.681C18.929 17.2732 18.7695 16.8821 18.4854 16.5938C18.2014 16.3055 17.8162 16.1435 17.4146 16.1435C17.0129 16.1435 16.6277 16.3055 16.3437 16.5938C16.0597 16.8821 15.9001 17.2732 15.9001 17.681C15.9001 18.0887 16.0597 18.4798 16.3437 18.7681C16.6277 19.0565 17.0129 19.2184 17.4146 19.2184C17.8162 19.2184 18.2014 19.0565 18.4854 18.7681C18.7695 18.4798 18.929 18.0887 18.929 17.681Z" fill="#282828"/>
</svg>
