<svg width="18" height="18" viewBox="0 0 18 18" fill="none" xmlns="http://www.w3.org/2000/svg">
<g id="vscode-icons:file-type-text">
<path id="Vector" d="M12.3964 1.125H3.58594C3.32509 1.12574 3.07514 1.22969 2.8907 1.41414C2.70625 1.59858 2.6023 1.84853 2.60156 2.10938V15.8906C2.6023 16.1515 2.70625 16.4014 2.8907 16.5859C3.07514 16.7703 3.32509 16.8743 3.58594 16.875H14.4141C14.6749 16.8743 14.9249 16.7703 15.1093 16.5859C15.2937 16.4014 15.3977 16.1515 15.3984 15.8906V3.8565L12.3964 1.125ZM12.6917 2.72475L13.6271 3.58594H12.6917V2.72475ZM3.58594 15.8906V2.10938H11.7073V4.57031H14.4146V15.8906H3.58594Z" fill="#C2C2C2"/>
<path id="Vector_2" d="M4.57031 8.49159H11.9256V9.47597H4.57031V8.49159ZM4.57031 13.7465H10.0614V14.7308H4.57031V13.7465ZM4.57031 11.1162H13.4297V12.1006H4.57031V11.1162ZM4.57031 5.75391H13.4297V6.73828H4.57031V5.75391Z" fill="#829EC2"/>
</g>
</svg>
